<svg width="277" height="99" viewBox="0 0 277 99" fill="none" xmlns="http://www.w3.org/2000/svg">
<path d="M0.540483 97V0.272724H37.5689C44.559 0.272724 50.3683 1.37476 54.9968 3.57883C59.6568 5.75142 63.1361 8.72692 65.4347 12.5053C67.7647 16.2837 68.9297 20.5659 68.9297 25.3519C68.9297 29.2878 68.174 32.6568 66.6626 35.4592C65.1513 38.23 63.1204 40.4813 60.57 42.2131C58.0195 43.9448 55.17 45.1886 52.0213 45.9442V46.8888C55.4534 47.0778 58.7437 48.1326 61.8924 50.0533C65.0726 51.9425 67.6702 54.6188 69.6854 58.0824C71.7005 61.5459 72.7081 65.7337 72.7081 70.6456C72.7081 75.652 71.4959 80.1546 69.0714 84.1534C66.6469 88.1207 62.9944 91.2537 58.114 93.5522C53.2335 95.8507 47.0936 97 39.6942 97H0.540483ZM18.0629 82.3587H36.9077C43.268 82.3587 47.8493 81.1464 50.6516 78.7219C53.4854 76.266 54.9023 73.1173 54.9023 69.2759C54.9023 66.4106 54.1939 63.8287 52.777 61.5302C51.3601 59.2002 49.3449 57.3739 46.7315 56.0515C44.1181 54.6976 41.0009 54.0206 37.38 54.0206H18.0629V82.3587ZM18.0629 41.4102H35.3963C38.419 41.4102 41.1426 40.8591 43.5671 39.7571C45.9916 38.6236 47.8965 37.0335 49.282 34.9869C50.6989 32.9087 51.4073 30.4528 51.4073 27.619C51.4073 23.872 50.0849 20.7863 47.44 18.3619C44.8266 15.9374 40.938 14.7251 35.7742 14.7251H18.0629V41.4102ZM119.312 98.4169C112.039 98.4169 105.757 96.9055 100.468 93.8828C95.2093 90.8286 91.1633 86.5149 88.3295 80.9418C85.4957 75.3371 84.0787 68.7406 84.0787 61.1523C84.0787 53.69 85.4957 47.1407 88.3295 41.5046C91.1948 35.837 95.1936 31.4289 100.326 28.2802C105.458 25.1 111.488 23.5099 118.415 23.5099C122.886 23.5099 127.105 24.2341 131.073 25.6825C135.072 27.0994 138.598 29.3035 141.652 32.2947C144.738 35.286 147.162 39.0959 148.926 43.7244C150.689 48.3215 151.571 53.8002 151.571 60.1605V65.4031H92.1079V53.8789H135.182C135.15 50.6043 134.442 47.6918 133.056 45.1413C131.671 42.5594 129.735 40.5285 127.247 39.0486C124.791 37.5688 121.926 36.8288 118.651 36.8288C115.156 36.8288 112.086 37.679 109.441 39.3793C106.796 41.0481 104.734 43.2521 103.254 45.9915C101.806 48.6993 101.066 51.6748 101.034 54.918V64.978C101.034 69.1972 101.806 72.8182 103.349 75.8409C104.891 78.8321 107.048 81.1307 109.819 82.7365C112.59 84.3108 115.833 85.098 119.549 85.098C122.036 85.098 124.287 84.7517 126.302 84.0589C128.318 83.3348 130.065 82.2799 131.545 80.8945C133.025 79.5091 134.143 77.7931 134.898 75.7464L150.862 77.5412C149.855 81.7604 147.934 85.4444 145.1 88.593C142.298 91.7102 138.708 94.1347 134.332 95.8665C129.955 97.5668 124.949 98.4169 119.312 98.4169ZM223.372 43.63L207.786 45.3303C207.345 43.7559 206.574 42.276 205.472 40.8906C204.401 39.5052 202.953 38.3874 201.127 37.5373C199.301 36.6871 197.065 36.2621 194.42 36.2621C190.862 36.2621 187.871 37.0335 185.446 38.5763C183.053 40.1192 181.873 42.1186 181.904 44.5746C181.873 46.6842 182.644 48.4002 184.218 49.7227C185.824 51.0451 188.469 52.1314 192.153 52.9815L204.527 55.6264C211.391 57.1063 216.492 59.4521 219.83 62.6637C223.199 65.8754 224.899 70.0788 224.931 75.2741C224.899 79.8397 223.561 83.87 220.916 87.3651C218.303 90.8286 214.666 93.5365 210.006 95.4886C205.346 97.4408 199.993 98.4169 193.948 98.4169C185.069 98.4169 177.921 96.5592 172.505 92.8438C167.09 89.0968 163.862 83.8858 162.823 77.2106L179.495 75.6048C180.251 78.8794 181.857 81.3511 184.313 83.0199C186.769 84.6887 189.965 85.5231 193.901 85.5231C197.962 85.5231 201.221 84.6887 203.677 83.0199C206.165 81.3511 207.408 79.2887 207.408 76.8327C207.408 74.7546 206.605 73.0386 205 71.6847C203.425 70.3307 200.969 69.2917 197.632 68.5675L185.257 65.9698C178.299 64.5214 173.151 62.0812 169.813 58.6491C166.476 55.1856 164.823 50.8089 164.854 45.5192C164.823 41.0481 166.035 37.1752 168.491 33.9006C170.978 30.5945 174.426 28.044 178.834 26.2493C183.274 24.4231 188.39 23.5099 194.184 23.5099C202.685 23.5099 209.376 25.3204 214.257 28.9414C219.169 32.5624 222.207 37.4586 223.372 43.63ZM275.254 24.4545V37.679H233.55V24.4545H275.254ZM243.846 7.07386H260.944V75.1797C260.944 77.4782 261.29 79.2415 261.983 80.4695C262.707 81.666 263.652 82.4846 264.817 82.9254C265.982 83.3662 267.273 83.5866 268.689 83.5866C269.76 83.5866 270.736 83.5079 271.618 83.3505C272.531 83.1931 273.224 83.0514 273.696 82.9254L276.577 96.2915C275.664 96.6064 274.357 96.9528 272.657 97.3306C270.988 97.7085 268.941 97.9289 266.517 97.9918C262.235 98.1178 258.378 97.4723 254.945 96.0554C251.513 94.607 248.79 92.3714 246.775 89.3487C244.791 86.326 243.815 82.5476 243.846 78.0135V7.07386Z" fill="#E21221"/>
</svg>
