<?xml version="1.0" encoding="UTF-8"?>
<svg version="1.1" viewBox="0 0 26 32" xmlns="http://www.w3.org/2000/svg" xmlns:xlink="http://www.w3.org/1999/xlink">
    <!--Generated by IJSVG (https://github.com/iconjar/IJSVG)-->
    <path d="M268,220c0,-0.552 0.448,-1 1,-1c0.552,0 1,0.448 1,1v12c0,0.553 -0.448,1 -1,1c-0.552,0 -1,-0.447 -1,-1v-12v0Zm5,0c0,-0.552 0.448,-1 1,-1c0.552,0 1,0.448 1,1v12c0,0.553 -0.448,1 -1,1c-0.552,0 -1,-0.447 -1,-1v-12v0Zm5,0c0,-0.552 0.448,-1 1,-1c0.552,0 1,0.448 1,1v12c0,0.553 -0.448,1 -1,1c-0.552,0 -1,-0.447 -1,-1v-12v0Zm-15,13c0,2.209 1.791,4 4,4h14c2.209,0 4,-1.791 4,-4v-16h-22v16v0Zm14,-24h-6v-1c0,-0.553 0.448,-1 1,-1h4c0.552,0 1,0.447 1,1v1v0Zm8,0h-6v-2c0,-1.104 -0.896,-2 -2,-2h-6c-1.104,0 -2,0.896 -2,2v2h-6c-1.104,0 -2,0.896 -2,2v2c0,1.104 0.895,1.999 1.999,2h22.003c1.103,-0.001 1.998,-0.896 1.998,-2v-2c0,-1.104 -0.896,-2 -2,-2v0Z" transform="matrix(1,0,0,1,-261,-205)" fill-rule="evenodd" fill="#EC7D78" stroke="none"></path>
</svg>