<svg width="24" height="24" viewBox="0 0 24 24" fill="none" xmlns="http://www.w3.org/2000/svg">
<path fill-rule="evenodd" clip-rule="evenodd" d="M6.63121 2.05587L6.59578 2.04962C5.86867 1.92129 5.27299 1.81616 4.79227 1.77541C4.30077 1.73374 3.83017 1.74816 3.39073 1.93466C2.73455 2.21315 2.21214 2.73556 1.93365 3.39174C1.74715 3.83117 1.73273 4.30177 1.7744 4.79328C1.81516 5.274 1.92029 5.86967 2.04861 6.59679L2.05486 6.63222L3.32728 13.8426L3.33245 13.8718C3.49395 14.7871 3.62245 15.5153 3.77183 16.1008C3.92512 16.7017 4.11244 17.2047 4.41726 17.6566C4.91501 18.3944 5.61004 18.9775 6.42311 19.3394C6.92103 19.5611 7.44895 19.6581 8.06736 19.7047C8.66994 19.75 9.40937 19.75 10.3387 19.75H10.3685H12.2319C11.6327 20.5949 11.7116 21.7733 12.4687 22.5303C13.3139 23.3755 14.6842 23.3755 15.5293 22.5303L22.0293 16.0303C22.8745 15.1852 22.8745 13.8149 22.0293 12.9697C21.4128 12.3531 20.5168 12.1863 19.749 12.4694V10.3695V10.3397C19.749 9.41037 19.749 8.67094 19.7037 8.06836C19.6571 7.44995 19.5601 6.92204 19.3384 6.42412C18.9765 5.61105 18.3934 4.91602 17.6556 4.41827C17.2037 4.11344 16.7007 3.92613 16.0998 3.77283C15.5143 3.62346 14.7861 3.49496 13.8708 3.33345L13.8416 3.32829L6.63121 2.05587ZM19.5293 14.5303L14.5293 19.5303L13.5293 20.5303C13.2699 20.7897 13.2699 21.2103 13.5293 21.4697C13.7887 21.7291 14.2093 21.7291 14.4687 21.4697L20.9687 14.9697C21.2281 14.7103 21.2281 14.2897 20.9687 14.0303C20.7093 13.771 20.2887 13.771 20.0293 14.0303L19.5293 14.5303ZM18.249 13.6894V10.3695C18.249 9.40372 18.2485 8.72064 18.2079 8.18091C18.168 7.6506 18.0922 7.3129 17.9681 7.03417C17.7204 6.47785 17.3215 6.00231 16.8166 5.66174C16.5637 5.4911 16.2443 5.35774 15.729 5.22628C15.2046 5.09249 14.532 4.9733 13.5809 4.80546L6.37053 3.53305C5.59928 3.39694 5.07065 3.30439 4.66556 3.27005C4.52421 3.25806 4.41021 3.25456 4.31721 3.257L8.03034 6.97014C8.32324 7.26303 8.32324 7.73791 8.03034 8.0308C7.73745 8.32369 7.26258 8.32369 6.96968 8.0308L3.25602 4.31714C3.25352 4.41035 3.25701 4.52467 3.26904 4.66657C3.30338 5.07166 3.39594 5.60029 3.53204 6.37154L4.80446 13.5819C4.97229 14.533 5.09149 15.2056 5.22528 15.73C5.35674 16.2453 5.4901 16.5647 5.66073 16.8177C6.0013 17.3225 6.47685 17.7214 7.03316 17.9691C7.31189 18.0932 7.64959 18.169 8.17991 18.2089C8.71964 18.2495 9.40271 18.25 10.3685 18.25H13.6883L18.249 13.6894ZM11 9.75001C10.3096 9.75001 9.74998 10.3097 9.74998 11C9.74998 11.6904 10.3096 12.25 11 12.25C11.6903 12.25 12.25 11.6904 12.25 11C12.25 10.3097 11.6903 9.75001 11 9.75001ZM8.24998 11C8.24998 9.48123 9.4812 8.25001 11 8.25001C12.5188 8.25001 13.75 9.48123 13.75 11C13.75 12.5188 12.5188 13.75 11 13.75C9.4812 13.75 8.24998 12.5188 8.24998 11Z" fill="#22272F"/>
</svg>
