<svg width="24" height="24" viewBox="0 0 24 24" fill="none" xmlns="http://www.w3.org/2000/svg">
<path fill-rule="evenodd" clip-rule="evenodd" d="M12.75 2.00002C12.75 1.69668 12.5673 1.4232 12.2871 1.30711C12.0068 1.19103 11.6842 1.25519 11.4697 1.46969L7.46971 5.46969C7.17682 5.76259 7.17682 6.23746 7.46971 6.53035C7.7626 6.82325 8.23748 6.82325 8.53037 6.53035L11.25 3.81068L11.25 15C11.25 15.4142 11.5858 15.75 12 15.75C12.4143 15.75 12.75 15.4142 12.75 15L12.75 2.00002ZM15.0304 3.96969C14.7375 3.6768 14.2626 3.6768 13.9697 3.96969C13.6768 4.26258 13.6768 4.73746 13.9697 5.03035L15.4697 6.53035C15.7626 6.82325 16.2375 6.82325 16.5304 6.53035C16.8233 6.23746 16.8233 5.76259 16.5304 5.46969L15.0304 3.96969ZM7.50004 9.25002L7.35703 9.25C6.09892 9.24972 5.29702 9.24954 4.62119 9.45456C3.10308 9.91507 1.91509 11.1031 1.45457 12.6212C1.24956 13.297 1.24974 14.0989 1.25002 15.357L1.25004 15.5L1.25004 16L1.25004 16.0274C1.25004 16.9361 1.25003 17.6563 1.28984 18.2397C1.33051 18.8357 1.41521 19.3436 1.61161 19.8178C2.09371 20.9816 3.01841 21.9064 4.1823 22.3884C4.65646 22.5849 5.16435 22.6696 5.76037 22.7102C6.34378 22.75 7.06394 22.75 7.9726 22.75H7.97266H8.00004H9.50004H10C10.4143 22.75 10.75 22.4142 10.75 22C10.75 21.5858 10.4143 21.25 10 21.25H9.50004H8.00004C7.0579 21.25 6.38885 21.2496 5.86247 21.2137C5.34283 21.1782 5.01724 21.1107 4.75632 21.0026C3.95998 20.6728 3.32729 20.0401 2.99743 19.2437C2.88935 18.9828 2.82182 18.6572 2.78636 18.1376C2.75045 17.6112 2.75004 16.9422 2.75004 16L2.75004 15.5C2.75004 14.0499 2.75818 13.4911 2.88999 13.0566C3.20507 12.0179 4.01791 11.2051 5.05662 10.89C5.49111 10.7582 6.04991 10.75 7.50004 10.75H8.00004C8.41425 10.75 8.75004 10.4142 8.75004 10C8.75004 9.58581 8.41425 9.25002 8.00004 9.25002H7.50004ZM16.5 10.75C17.9502 10.75 18.509 10.7582 18.9435 10.89C19.9822 11.2051 20.795 12.0179 21.1101 13.0566C21.2419 13.4911 21.25 14.0499 21.25 15.5V16C21.25 16.9422 21.2496 17.6112 21.2137 18.1376C21.1783 18.6572 21.1107 18.9828 21.0027 19.2437C20.6728 20.0401 20.0401 20.6728 19.2438 21.0026C18.9828 21.1107 18.6573 21.1782 18.1376 21.2137C17.6112 21.2496 16.9422 21.25 16 21.25H14.5H14C13.5858 21.25 13.25 21.5858 13.25 22C13.25 22.4142 13.5858 22.75 14 22.75H14.5H16H16.0274H16.0275C16.9361 22.75 17.6563 22.75 18.2397 22.7102C18.8357 22.6696 19.3436 22.5849 19.8178 22.3884C20.9817 21.9064 21.9064 20.9817 22.3885 19.8178C22.5849 19.3436 22.6696 18.8357 22.7102 18.2397C22.75 17.6563 22.75 16.9361 22.75 16.0275V16.0274V16V15.5L22.7501 15.357C22.7503 14.0989 22.7505 13.297 22.5455 12.6212C22.085 11.1031 20.897 9.91507 19.3789 9.45456C18.7031 9.24955 17.9012 9.24972 16.643 9.25L16.5 9.25002L16 9.25002C15.5858 9.25002 15.25 9.58581 15.25 10C15.25 10.4142 15.5858 10.75 16 10.75L16.5 10.75Z" fill="#22272F"/>
</svg>
