<svg width="334" height="101" viewBox="0 0 334 101" fill="none" xmlns="http://www.w3.org/2000/svg">
<path d="M56.1076 28.8633C55.6668 24.7385 53.8091 21.5269 50.5344 19.2283C47.2913 16.9298 43.0721 15.7805 37.8768 15.7805C34.2243 15.7805 31.0914 16.3316 28.478 17.4336C25.8646 18.5356 23.8652 20.0312 22.4798 21.9204C21.0943 23.8097 20.3859 25.9665 20.3544 28.391C20.3544 30.4061 20.811 32.1536 21.7241 33.6335C22.6687 35.1134 23.9439 36.3729 25.5497 37.4119C27.1555 38.4195 28.9345 39.2696 30.8867 39.9624C32.8389 40.6551 34.8068 41.2376 36.7905 41.7099L45.8587 43.9769C49.5111 44.8271 53.0219 45.9763 56.391 47.4247C59.7915 48.8731 62.83 50.6993 65.5064 52.9034C68.2143 55.1075 70.3553 57.7681 71.9297 60.8853C73.504 64.0025 74.2912 67.6549 74.2912 71.8427C74.2912 77.5103 72.8428 82.5009 69.946 86.8146C67.0492 91.0968 62.8615 94.4502 57.3828 96.8746C51.9356 99.2676 45.3391 100.464 37.5934 100.464C30.0681 100.464 23.5346 99.2991 17.9929 96.9691C12.4827 94.6391 8.16903 91.2385 5.05185 86.7674C1.96615 82.2963 0.297349 76.8491 0.0454547 70.4258H17.2844C17.5363 73.7949 18.5754 76.5972 20.4016 78.8327C22.2279 81.0683 24.6051 82.7371 27.5334 83.8391C30.4931 84.9412 33.7992 85.4922 37.4517 85.4922C41.2616 85.4922 44.5992 84.9254 47.4645 83.7919C50.3613 82.6269 52.6283 81.0211 54.2656 78.9744C55.9029 76.8963 56.7373 74.4718 56.7688 71.701C56.7373 69.1821 55.9974 67.1039 54.549 65.4666C53.1006 63.7978 51.0697 62.4124 48.4563 61.3104C45.8744 60.1768 42.8517 59.1693 39.3881 58.2876L28.3835 55.4538C20.4174 53.4072 14.12 50.3058 9.49148 46.1495C4.89441 41.9618 2.59588 36.4044 2.59588 29.4773C2.59588 23.7782 4.13873 18.7875 7.22443 14.5053C10.3416 10.2231 14.5766 6.90128 19.9293 4.53977C25.2821 2.14678 31.3433 0.95028 38.1129 0.95028C44.977 0.95028 50.991 2.14678 56.1548 4.53977C61.3501 6.90128 65.4277 10.1916 68.3874 14.4109C71.3472 18.5986 72.8743 23.4161 72.9688 28.8633H56.1076ZM125.382 26.4545V39.679H83.6782V26.4545H125.382ZM93.9743 9.07386H111.072V77.1797C111.072 79.4782 111.418 81.2415 112.111 82.4695C112.835 83.666 113.78 84.4846 114.945 84.9254C116.11 85.3662 117.4 85.5866 118.817 85.5866C119.888 85.5866 120.864 85.5079 121.746 85.3505C122.659 85.1931 123.351 85.0514 123.824 84.9254L126.705 98.2915C125.792 98.6064 124.485 98.9528 122.785 99.3306C121.116 99.7085 119.069 99.9289 116.645 99.9918C112.363 100.118 108.505 99.4723 105.073 98.0554C101.641 96.607 98.9178 94.3714 96.9026 91.3487C94.9189 88.326 93.9429 84.5476 93.9743 80.0135V9.07386ZM170.546 100.417C163.462 100.417 157.322 98.8583 152.126 95.7411C146.931 92.6239 142.901 88.263 140.036 82.6584C137.202 77.0537 135.785 70.5045 135.785 63.0107C135.785 55.5168 137.202 48.9518 140.036 43.3157C142.901 37.6796 146.931 33.3029 152.126 30.1857C157.322 27.0685 163.462 25.5099 170.546 25.5099C177.631 25.5099 183.771 27.0685 188.966 30.1857C194.161 33.3029 198.176 37.6796 201.01 43.3157C203.875 48.9518 205.308 55.5168 205.308 63.0107C205.308 70.5045 203.875 77.0537 201.01 82.6584C198.176 88.263 194.161 92.6239 188.966 95.7411C183.771 98.8583 177.631 100.417 170.546 100.417ZM170.641 86.7202C174.482 86.7202 177.694 85.6654 180.276 83.5558C182.857 81.4147 184.778 78.5494 186.038 74.9599C187.329 71.3704 187.974 67.3716 187.974 62.9634C187.974 58.5238 187.329 54.5092 186.038 50.9197C184.778 47.2988 182.857 44.4177 180.276 42.2766C177.694 40.1355 174.482 39.065 170.641 39.065C166.705 39.065 163.43 40.1355 160.817 42.2766C158.235 44.4177 156.298 47.2988 155.007 50.9197C153.748 54.5092 153.118 58.5238 153.118 62.9634C153.118 67.3716 153.748 71.3704 155.007 74.9599C156.298 78.5494 158.235 81.4147 160.817 83.5558C163.43 85.6654 166.705 86.7202 170.641 86.7202ZM219.819 99V26.4545H236.397V38.5455H237.152C238.475 34.3577 240.742 31.1303 243.954 28.8633C247.197 26.5647 250.896 25.4155 255.053 25.4155C255.997 25.4155 257.052 25.4627 258.217 25.5572C259.414 25.6201 260.405 25.7303 261.193 25.8878V41.6154C260.468 41.3635 259.319 41.1431 257.745 40.9542C256.202 40.7338 254.706 40.6236 253.258 40.6236C250.141 40.6236 247.338 41.3005 244.851 42.6545C242.395 43.9769 240.459 45.8189 239.042 48.1804C237.625 50.5419 236.916 53.2655 236.916 56.3512V99H219.819ZM301.681 100.417C294.407 100.417 288.126 98.9055 282.836 95.8828C277.577 92.8286 273.531 88.5149 270.698 82.9418C267.864 77.3371 266.447 70.7406 266.447 63.1523C266.447 55.69 267.864 49.1407 270.698 43.5046C273.563 37.837 277.562 33.4289 282.694 30.2802C287.826 27.1 293.856 25.5099 300.783 25.5099C305.254 25.5099 309.474 26.2341 313.441 27.6825C317.44 29.0994 320.966 31.3035 324.02 34.2947C327.106 37.286 329.531 41.0959 331.294 45.7244C333.057 50.3215 333.939 55.8002 333.939 62.1605V67.4031H274.476V55.8789H317.55C317.518 52.6043 316.81 49.6918 315.425 47.1413C314.039 44.5594 312.103 42.5285 309.615 41.0486C307.159 39.5688 304.294 38.8288 301.019 38.8288C297.524 38.8288 294.454 39.679 291.809 41.3793C289.165 43.0481 287.102 45.2521 285.622 47.9915C284.174 50.6993 283.434 53.6748 283.403 56.918V66.978C283.403 71.1972 284.174 74.8182 285.717 77.8409C287.26 80.8321 289.416 83.1307 292.187 84.7365C294.958 86.3108 298.201 87.098 301.917 87.098C304.404 87.098 306.655 86.7517 308.671 86.0589C310.686 85.3348 312.433 84.2799 313.913 82.8945C315.393 81.5091 316.511 79.7931 317.267 77.7464L333.23 79.5412C332.223 83.7604 330.302 87.4444 327.468 90.593C324.666 93.7102 321.076 96.1347 316.7 97.8665C312.323 99.5668 307.317 100.417 301.681 100.417Z" fill="#3D3C3C"/>
</svg>
